<svg id="Layer_1" data-name="Layer 1" xmlns="http://www.w3.org/2000/svg" viewBox="0 0 280.38 166.85"><defs><style>.cls-1{fill:#232e40;}</style></defs><path class="cls-1" d="M113,234.58c0-19.76,0-39.2,0-58.65,0-4.89,2.88-7.36,7.65-7.35q132.51.13,265,.07c5.08,0,7.52,1.95,7.55,7,.14,19.57.06,39.13.06,58.94Zm140.1-37.91q57.76,0,115.54.06c3.23,0,5.3-.74,5.42-4.28s-1.66-5.11-5.49-5.11H137.83c-4,0-6.07,1.65-6.14,4.75-.06,2.92,2.18,4.58,6.21,4.58Q195.47,196.69,253.05,196.67Zm0,23.36q58,0,116,0c2.61,0,4.58-.42,4.82-3.58.21-2.86-.2-5.15-3.68-5.45-1.41-.12-2.82-.33-4.22-.33q-113.09,0-226.16,0a19.86,19.86,0,0,0-5.24.8,3.69,3.69,0,0,0-2.1,1.78c-1.87,4,.19,6.73,5,6.73Z" transform="translate(-112.9 -168.58)"/><path class="cls-1" d="M365.06,263.11c1.45,4,2.4,7.75,4.12,11.07s4.22,6.24,6.52,9.54H127.79c4.49-6.37,10-12,9.24-20.61Z" transform="translate(-112.9 -168.58)"/><path class="cls-1" d="M122.6,251.41c.75,4.1,1.32,7.86,2.14,11.56.9,4.1-.81,7.73-4.19,8.42a6.4,6.4,0,0,1-7.52-6.22c-.25-6.84-.06-13.69-.06-20.77H393.2c0,7.08.22,14-.08,21-.18,4.23-3.93,6.76-7.92,6-5.69-1-7.54-3.71-6.4-8.92.79-3.58,1.34-7.22,2.05-11.1Z" transform="translate(-112.9 -168.58)"/><path class="cls-1" d="M200.7,335.43c-1.37-1.68-3-2.92-3.54-4.52-.85-2.6,1.23-3.88,3.33-4.89,4-1.9,8.09-3.56,11.83-5.84,5.58-3.42,9.54-8.45,12.47-14.29,1.3-2.57,2.43-5.49,6.2-3.37,3.44,1.94,2.57,4.65,1.18,7.43a47.55,47.55,0,0,1-19.63,20.21C209.06,332.12,205.21,333.45,200.7,335.43Z" transform="translate(-112.9 -168.58)"/><path class="cls-1" d="M139.39,334.57c-.67-.67-2.45-1.68-2.95-3.13-.89-2.54.64-4.73,3.06-5.41,11.47-3.2,19.14-10.79,24.76-20.85,1.2-2.16,2.32-4.52,5.41-3.05,2.93,1.39,3.14,4.05,2,6.52-6.22,13.12-16.48,21.6-30.34,25.77A16,16,0,0,1,139.39,334.57Z" transform="translate(-112.9 -168.58)"/><path class="cls-1" d="M275.42,301.82c.73.79,2.32,1.91,3.09,3.45,5.12,10.15,13.21,16.69,23.69,20.8,1.93.76,4.54,3.84,4.24,5.32-.54,2.63-3.15,3.42-6.46,2.5-10.24-2.84-17.62-9.5-24.21-17.24a39.22,39.22,0,0,1-5-8.49C269.28,305,271.28,301.72,275.42,301.82Z" transform="translate(-112.9 -168.58)"/><path class="cls-1" d="M330.39,305.54c1.27-1.24,2.44-3.3,3.85-3.49a5.54,5.54,0,0,1,4.47,2.47c3.09,5.91,7,11.11,12.47,14.85a70,70,0,0,0,11.14,6.32c2.8,1.21,5.37,2.31,5.09,5.7-.2,2.45-4.06,3.65-7.77,2.24-12.61-4.8-22.19-13.05-28.08-25.35a6.5,6.5,0,0,1-.54-1,5,5,0,0,1,0-1.16Z" transform="translate(-112.9 -168.58)"/></svg>