<svg id="Layer_2" data-name="Layer 2" xmlns="http://www.w3.org/2000/svg" viewBox="0 0 309.06 211.21"><defs><style>.cls-1{fill:#232e40;}</style></defs><path class="cls-1" d="M253.31,355.41c-58.52.46-106.06-48.74-105.41-106.39.65-57.93,47.36-104.86,105.48-104.81,59.32,0,105.91,46.9,105.8,106.39C359.07,308.79,311.91,355.48,253.31,355.41ZM336,249.78c0-45.11-37.1-82.2-82.33-82.25s-82.38,36.85-82.44,82.07,36.8,82.43,82,82.5C298.82,332.17,336,295.19,336,249.78Z" transform="translate(-95.58 -144.21)"/><path class="cls-1" d="M111.76,290.14c.59-17.8,1.13-35.61,1.8-53.42.16-4.08-1.19-7-4.75-9.12-9.55-5.57-13.74-13.9-13.19-24.95.73-14.3,1.11-28.62,1.66-42.93a16.59,16.59,0,0,1,.37-3.46c.71-2.78,2.23-5.58,5.35-4.44,1.89.68,4.18,3.52,4.23,5.45.22,8.31-.3,16.64-.59,25-.13,3.66-.36,7.32-.53,11-.15,3.07.23,6,4.16,6s4.21-3,4.21-6.08q0-16,0-32c0-1.34-.06-2.68.06-4,.27-3.08,1.22-5.65,5-5.52s4.76,2.68,4.94,5.73.06,6,.06,9q0,13.49,0,27c0,3.11.59,6,4.41,5.86,3.64-.1,3.9-3,3.79-5.83q-.57-15.48-1.17-31c-.07-1.83-.82-4-.12-5.42,1-2.06,2.79-4.55,4.76-5.16,3.16-1,4.89,1.8,5.15,4.65.47,5,.51,10,.7,15,.42,11.31.79,22.63,1.23,33.94.36,9.36-3.62,16.58-11.52,21.18-5.09,3-6.52,6.78-6.3,12.32q2.08,52.17,3.8,104.34c.23,6.66-2.15,10.5-6.89,11.75-7.4,1.95-13.13-3.06-12.84-11.39.61-17.81,1.31-35.62,2-53.42Z" transform="translate(-95.58 -144.21)"/><path class="cls-1" d="M391.28,247.82c-3.68,0-6.5.19-9.29,0-4.95-.42-7.88-3.29-7.71-8.05.92-25.37,3.44-50.52,12.88-74.38,2.49-6.3,5.6-12.53,11.89-16.15,4.31-2.47,5.69-1.67,5.57,3.29-.72,31.14-1.85,62.28-2.2,93.42-.2,18,.83,36,1.27,53.94.34,14,.76,28,.9,42a9.69,9.69,0,0,1-10.1,10c-5.8-.16-9.8-4.25-9.42-10.57,1.38-22.77,3-45.53,4.56-68.3C390.18,264.85,390.69,256.74,391.28,247.82Z" transform="translate(-95.58 -144.21)"/><path class="cls-1" d="M331.3,250c-.17,43.59-34.95,77.92-78.7,77.72-42.16-.2-77.13-35.71-77-78.17.13-43.16,35.46-78,79-77.73C297,172.08,331.48,207.19,331.3,250Z" transform="translate(-95.58 -144.21)"/></svg>