<svg id="Layer_3" data-name="Layer 3" xmlns="http://www.w3.org/2000/svg" viewBox="0 0 308.1 210.9"><defs><style>.cls-1{fill:#232e40;}</style></defs><path class="cls-1" d="M158.55,287.17c13.83-8.2,27.63-16.47,41.51-24.6q23.22-13.59,46.59-26.92c2.84-1.61,3.06-3,1.53-5.74q-11.58-20.5-22.86-41.2c-5.45-10-1.89-19.22,6.21-23.78,3.45-1.94,7.91-2.17,11.94-3q18.3-3.56,36.61-6.94c10.34-1.88,20.7-3.58,31-5.42,4.06-.73,8.1-1.58,12.13-2.47,6.52-1.44,12.74-1.34,18.26,3.08,8.38,6.72,8.6,20.66-.33,27.5-4.34,3.32-9.34,3.93-14.27,4.92-9.78,2-19.61,3.69-29.43,5.47-6.89,1.25-13.8,2.42-20.69,3.69-1.53.28-3,.82-5,1.36l53.92,96.73c-4.55-.72-8.64-.76-12.27-2.07-8.63-3.12-17.08-6.78-25.54-10.35a93.65,93.65,0,0,0-23.36-6c-10.23-1.47-20.34-.44-30.33,1.45-7.92,1.5-15.16,5.11-22.46,8.52a103.65,103.65,0,0,1-19,7,61.57,61.57,0,0,1-26.72.71c-2.55-.49-5.14-.76-7.72-1.13Z" transform="translate(-99.64 -146.31)"/><path class="cls-1" d="M331,357.11c-15.16.57-28.95-3.27-42.25-10a85.37,85.37,0,0,0-21.41-7.64c-6.72-1.35-13.86-.76-20.82-.74-13.5,0-24.66,7.18-36.54,12.18a80,80,0,0,1-30.43,6.33c-9.8.11-19.5-.39-28.83-3.41a96.1,96.1,0,0,1-15.75-6.66,71.82,71.82,0,0,0-31.33-8.83c-2.58-.11-3.89-1.61-3.93-4.17q-.06-3.24,0-6.48c.06-3.33,2.42-5.06,5.73-4.49,6.18,1,12.59,1.28,18.52,3.1a155.87,155.87,0,0,1,22.08,9c12.78,6.22,26.11,6.74,40,5.86,12.4-.8,22.58-7,33.42-11.7,13.57-5.91,27.84-7.62,42.37-6.54,12.81.95,24.74,5.17,36.13,11.32A56.78,56.78,0,0,0,320.2,341c8.72.76,17.45,1.29,25.87-.92a140.29,140.29,0,0,0,21.4-8c10.36-4.65,20.83-8.52,32.35-8.75,1.06,0,2.1-.53,3.16-.55a4.26,4.26,0,0,1,4.41,4.84c-.35,3.68,2.32,9.89-3.19,10.32-13.1,1-24.76,5.41-36.25,11.26A73.69,73.69,0,0,1,331,357.11Z" transform="translate(-99.64 -146.31)"/><path class="cls-1" d="M330.5,325.65c-16.15.84-30.7-4.27-44.69-11.61a66.84,66.84,0,0,0-24-7A72.19,72.19,0,0,0,233,309.35c-6.35,1.88-12.36,5-18.38,7.84a81.84,81.84,0,0,1-35.14,8.24c-11.09,0-22.05-.38-32.45-4.6-6.58-2.68-13-5.8-19.43-8.77-7.53-3.47-15.53-4.94-23.72-5.48-2.76-.18-4.19-1.32-4.18-4.12,0-2.16,0-4.32,0-6.48,0-2.89,1.31-4.32,4.28-4.36A60.51,60.51,0,0,1,125.29,295c8.06,2.91,15.81,6.67,23.73,10a63.68,63.68,0,0,0,21.3,4.9c8.61.5,17.16.37,25.4-2.13a126.23,126.23,0,0,0,17.64-7.15,91.42,91.42,0,0,1,33-9.11,88.55,88.55,0,0,1,49.89,10.24A70.27,70.27,0,0,0,326.29,310a74.36,74.36,0,0,0,39.07-8.41,89.34,89.34,0,0,1,25.69-9.08c4.1-.72,8.34-.59,12.52-.82a3.27,3.27,0,0,1,3.74,3.17,40.42,40.42,0,0,1,.18,5.17c0,5.75-.23,5.95-5.95,6.57a77.74,77.74,0,0,0-29,8.77,86.27,86.27,0,0,1-26,9.15C341.29,325.42,335.85,325.29,330.5,325.65Z" transform="translate(-99.64 -146.31)"/><path class="cls-1" d="M379.12,234.77c.45,16.77-13.5,31.19-30.79,31.28-17.9.08-31.73-14-30.9-33,.67-15.23,14.07-29.78,31.25-29.63C364.3,203.6,379.62,216.79,379.12,234.77Z" transform="translate(-99.64 -146.31)"/></svg>