<svg id="Layer_4" data-name="Layer 4" xmlns="http://www.w3.org/2000/svg" viewBox="0 0 310.41 244.32"><defs><style>.cls-1{fill:#232e40;}</style></defs><path class="cls-1" d="M382.88,213.87c-37.62-36-81.31-55-133-55s-95.32,19.25-132.74,55L94.76,192.48c36.92-36.4,80.86-58.6,132.13-63.61C308,121,367,154.47,405.17,192.56c-3.65,3.47-7.31,6.94-10.94,10.41Z" transform="translate(-94.76 -127.71)"/><path class="cls-1" d="M250.58,189.12c17-.22,33.27,3.21,49.43,8.27,12.59,4,24,10.06,34.82,17.21,8.36,5.52,16.05,12.08,23.84,18.43,1,.79,1.09,3.13.9,4.67-.12,1-1.43,2-2.3,2.84q-7.11,7.22-14.26,14.36c-2.1,2.09-4.13,2.87-6.62.22-12-12.75-26.77-21.21-43-27.3-26.7-10-53.81-10.06-80.85-2C200.93,229.27,189.7,234.25,180,242c-5.5,4.37-11.07,8.65-16.41,13.21-2.06,1.76-3.94,2.21-5.78.4-5.79-5.7-11.54-11.45-17-17.47-.77-.85-.42-4,.53-4.89a120.63,120.63,0,0,1,12.46-10.9,180.8,180.8,0,0,1,16.71-11.45,130.89,130.89,0,0,1,18.47-9.4C208.76,193.68,229.18,188.83,250.58,189.12Z" transform="translate(-94.76 -127.71)"/><path class="cls-1" d="M182.8,279.77c36-39.13,101.13-37.11,134.36,0-3.9,3.92-7.87,7.86-11.78,11.85-2.21,2.26-4.47,4.51-6.47,7-2.21,2.68-3.75,2.49-6.32.09-12.48-11.71-27.51-17.2-44.54-16.95a51.59,51.59,0,0,0-27.58,8,159.34,159.34,0,0,0-13.77,9.64c-2,1.59-3.07,1.77-4.79,0C195.63,292.84,189.27,286.39,182.8,279.77Z" transform="translate(-94.76 -127.71)"/><path class="cls-1" d="M249.71,371.87c-13.79,1.71-24.84-13.26-24.49-24.93.39-13,9.95-24.25,24.83-24.37s25.12,12.44,25.17,25.49C275.26,359,264.47,373.68,249.71,371.87Z" transform="translate(-94.76 -127.71)"/></svg>